<?xml version="1.0" standalone="no"?>
<!DOCTYPE svg PUBLIC "-//W3C//DTD SVG 20010904//EN"
 "http://www.w3.org/TR/2001/REC-SVG-20010904/DTD/svg10.dtd">
<svg version="1.0" xmlns="http://www.w3.org/2000/svg"
 width="1024.000000pt" height="1024.000000pt" viewBox="0 0 1024.000000 1024.000000"
 preserveAspectRatio="xMidYMid meet">

<g transform="translate(0.000000,1024.000000) scale(0.100000,-0.100000)"
fill="#000000" stroke="none">
<path d="M5075 8780 l-2850 -5 -53 -22 c-121 -49 -220 -137 -279 -250 -68
-126 -63 47 -63 -2353 0 -2397 -4 -2238 62 -2364 40 -76 156 -195 223 -228
131 -67 56 -62 1174 -66 l1013 -3 -6 -22 c-3 -12 -47 -192 -98 -399 l-93 -378
-240 0 c-221 0 -243 -2 -272 -20 -69 -41 -94 -155 -52 -230 44 -77 -94 -71
1606 -68 l1521 3 27 25 c39 37 55 73 55 127 0 60 -25 111 -69 140 -33 22 -41
23 -282 23 l-249 0 -5 23 c-3 12 -47 192 -99 400 l-93 377 981 0 c624 0 1005
4 1046 10 204 33 384 207 435 421 11 49 15 127 15 329 0 296 -3 313 -69 357
l-34 23 -3089 0 -3088 0 2 1823 3 1822 23 47 c13 26 37 59 53 73 71 59 -121
55 2894 55 3015 0 2823 4 2894 -55 16 -14 40 -47 53 -73 l23 -47 5 -973 5
-974 24 -19 c69 -56 171 21 254 191 l42 85 3 857 c2 737 0 867 -13 923 -49
214 -231 387 -434 413 -31 4 -1338 5 -2906 2z m3023 -4633 c-4 -146 -6 -156
-34 -207 -23 -44 -39 -60 -83 -82 l-54 -28 -2817 2 -2818 3 -44 30 c-27 19
-52 48 -68 80 -23 46 -25 64 -28 203 l-4 152 2977 0 2978 0 -5 -153z m-2383
-1045 c54 -213 100 -393 103 -399 3 -10 -139 -13 -690 -13 l-694 0 87 343 c49
188 95 369 104 402 l16 60 488 -3 488 -2 98 -388z"/>
<path d="M5615 7596 c-16 -7 -40 -24 -51 -37 -12 -13 -98 -197 -192 -409 -268
-605 -457 -1029 -612 -1370 -151 -333 -165 -376 -137 -441 42 -102 185 -129
261 -50 35 37 952 2076 962 2142 8 48 -23 119 -66 149 -40 29 -121 37 -165 16z"/>
<path d="M4213 7400 c-31 -13 -913 -879 -924 -908 -13 -34 -11 -89 5 -120 8
-15 47 -58 88 -97 40 -38 239 -230 441 -427 202 -197 382 -365 399 -374 41
-21 116 -14 157 15 62 45 90 146 57 210 -8 15 -133 142 -278 281 -145 140
-303 293 -351 340 -48 46 -94 88 -102 93 -8 4 -15 14 -15 21 0 13 148 160 509
506 125 119 220 218 228 237 46 110 -32 234 -146 232 -25 0 -56 -4 -68 -9z"/>
<path d="M6064 7381 c-68 -42 -103 -141 -74 -211 7 -16 82 -96 168 -177 262
-248 567 -543 570 -552 1 -4 -162 -167 -362 -361 -232 -224 -369 -364 -376
-383 -26 -74 4 -160 70 -205 29 -20 44 -23 92 -20 68 5 11 -44 577 502 240
232 399 394 408 413 33 80 15 108 -214 326 -105 100 -305 292 -444 425 -139
134 -263 248 -276 253 -40 15 -106 10 -139 -10z"/>
</g>
</svg>
